{"title":"Super 8 2011 XViD CAM DTRG - SAFCuk009","uid":6467921,"size":1364839058,"categoryP":"video","categoryS":"movies","magnet":"?xt=urn:btih:57259a793a8040444ecfcd32f9dca751b684ae84&amp;dn=Super+8+2011+XViD+CAM+DTRG+-+SAFCuk009&amp;tr=udp%3A%2F%2Ftracker.openbittorrent.com%3A80&amp;tr=udp%3A%2F%2Fopen.demonii.com%3A1337&amp;tr=udp%3A%2F%2Ftracker.coppersurfer.tk%3A6969&amp;tr=udp%3A%2F%2Fexodus.desync.com%3A6969","seeders":0,"leechers":1,"uploader":"SAFCukO09","files":3,"time":1308030375,"description":"Format : AVI\nFormat/Info : Audio Video Interleave\nFile size : 1.27 GiB\nDuration : 1h 40mn\nOverall bit rate : 1 803 Kbps\nWriting application : VirtualDubMod 1.5.10.2 (build 2540/release)\nWriting library : VirtualDub build 32839/release\n\nVideo\nID : 0\nFormat : MPEG-4 Visual\nFormat profile : Advanced Simple@L5\nFormat settings, BVOP : 2\nFormat settings, QPel : No\nFormat settings, GMC : No warppoints\nFormat settings, Matrix : Default (H.263)\nMuxing mode : Packed bitstream\nCodec ID : XVID\nCodec ID/Hint : XviD\nDuration : 1h 40mn\nBit rate : 1 666 Kbps\nWidth : 720 pixels\nHeight : 288 pixels\nDisplay aspect ratio : 2.500\nFrame rate : 24.000 fps\nColor space : YUV\nChroma subsampling : 4:2:0\nBit depth : 8 bits\nScan type : Progressive\nCompression mode : Lossy\nBits/(Pixel*Frame) : 0.335\nStream size : 1.17 GiB (92%)\nWriting library : XviD 63\n\nAudio\nID : 1\nFormat : MPEG Audio\nFormat version : Version 1\nFormat profile : Layer 3\nMode : Joint stereo\nMode extension : MS Stereo\nCodec ID : 55\nCodec ID/Hint : MP3\nDuration : 1h 40mn\nBit rate mode : Constant\nBit rate : 128 Kbps\nChannel(s) : 2 channels\nSampling rate : 44.1 KHz\nCompression mode : Lossy\nStream size : 92.4 MiB (7%)\nAlignment : Split accross interleaves\nInterleave, duration : 42 ms (1.00 video frame)\nInterleave, preload duration : 500 ms\n\n\n\n &lt;a href=&quot;\nhttp://www.imdb.com/title/tt1650062/&quot; rel=&quot;nofollow&quot; target=&quot;_NEW&quot;&gt;\nhttp://www.imdb.com/title/tt1650062/&lt;/a&gt;\n\n\n\n\n89524873606771859129.png\n\n\nStoryline\n\nIn the summer of 1979, a group of friends in a small Ohio town witness a catastrophic train crash while making a super 8 movie and soon suspect that it was not an accident. Shortly after, unusual disappearances and inexplicable events begin to take place in town, and the local Deputy tries to uncover the truth - something more terrifying than any of them could have imagined.\n\n\n\n95521316153253938506.png\n\n\n\n\nvlcsnap2011061316h53m17.png\n\nvlcsnap2011061316h53m04.png\n\nvlcsnap2011061316h53m40a.png\n\nvlcsnap2011061316h52m34.png\n\nvlcsnap2011061316h54m21.png\n\n\n\nSource Used\n\nbambi - EPC1 ...........Thanks\n\nLowered the saturation a touch slight sharpen and slight contrast and levels filter\n\nEnjoy !\n\n\n\nGreetz to IMAGiNE,Flawl3ss,DiLLoN,BDK,NOiR,TOXiC,THC,Ez,Rx,Boobyblue,TaRiQ786,LKRG,EP1C","torrent":{"xt":"urn:btih:57259a793a8040444ecfcd32f9dca751b684ae84","amp;dn":"Super+8+2011+XViD+CAM+DTRG+-+SAFCuk009","amp;tr":["udp%3A%2F%2Ftracker.openbittorrent.com%3A80","udp%3A%2F%2Fopen.demonii.com%3A1337","udp%3A%2F%2Ftracker.coppersurfer.tk%3A6969","udp%3A%2F%2Fexodus.desync.com%3A6969"],"infoHash":"57259a793a8040444ecfcd32f9dca751b684ae84","infoHashBuffer":{"type":"Buffer","data":[87,37,154,121,58,128,64,68,78,207,205,50,249,220,167,81,182,132,174,132]},"announce":[],"urlList":[]}}